<svg width="1280" height="596" viewBox="0 0 1280 596" fill="none" xmlns="http://www.w3.org/2000/svg">
<path d="M84.375 0.3125H99.375L110 2.8125L120.625 7.8125L128.75 14.0625L273.125 158.438L275 159.062L276.25 156.562L280 152.812H281.25V151.562H282.5V150.312H283.75V149.062H285V147.812H286.25V146.562H287.5V145.312H288.75V144.062H290V142.812H291.25V141.562L296.25 137.188L355.625 77.8125L363.75 72.8125L370.625 69.6875L380.625 67.1875L390 66.5625L401.25 67.8125L410.625 70.9375L420 75.9375L428.125 82.8125L434.375 90.3125L440 100.938L442.5 109.688L443.125 112.812V129.688L440.625 139.688L435.625 149.688L431.25 155.938L427.5 160.312H426.25V161.562H425V162.812L420 167.188L350.625 236.562L344.375 244.688L339.375 254.062L336.25 264.688L335.625 270.312V279.062L337.5 289.062L340.625 297.188L344.375 304.062L349.375 310.312L351.875 312.812V314.062H353.125V315.312L355.625 316.562L429.375 390.312L435.625 398.438L440.625 409.062L443.125 419.062V435.938L440.625 445.938L435.625 455.938L431.25 462.188L426.875 467.188L418.75 473.438L408.75 478.438L399.375 480.938L388.125 482.188L375.625 480.312L368.125 477.812L360.625 474.062L353.125 468.438L223.75 339.062L218.75 334.688L207.5 323.438L205 324.688L126.875 402.812L117.5 409.062L108.125 412.812L99.375 414.688L89.375 415.312L77.5 413.438L69.375 410.312L61.25 405.938L54.375 400.312L50 395.938L44.375 387.812L40.625 379.688L38.125 370.312L37.5 366.562V355.312L39.375 345.312L43.125 335.938L48.75 327.188L54.375 320.938L133.125 242.188L137.5 235.938L141.875 227.188L144.375 219.062L145.625 209.062L145 199.688L142.5 189.688L137.5 179.062L131.875 171.562L50 89.6875L44.375 81.5625L40.625 73.4375L38.125 64.0625L37.5 60.3125V49.0625L39.375 39.0625L43.125 29.6875L48.75 20.9375L55.625 13.4375L64.375 7.1875L73.75 2.8125L84.375 0.3125Z" fill="#362E66"/>
<path d="M388.125 66.5625L401.25 67.8125L410.625 70.9375L420 75.9375L428.125 82.8125L434.375 90.3125L440 100.938L442.5 109.688L443.125 112.812V129.688L440.625 139.688L435.625 149.688L431.25 155.938L427.5 160.312H426.25V161.562H425V162.812L420 167.188L350.625 236.562L344.375 244.688L339.375 254.062L336.25 264.688L335.625 270.312V279.062L337.5 289.062L340.625 297.188L344.375 304.062L349.375 310.312L351.875 312.812V314.062H353.125V315.312L355.625 316.562L429.375 390.312L435.625 398.438L440.625 409.062L443.125 419.062V435.938L440.625 445.938L435.625 455.938L431.25 462.188L426.875 467.188L418.75 473.438L408.75 478.438L399.375 480.938L388.125 482.188L375.625 480.312L368.125 477.812L360.625 474.062L353.125 468.438L223.75 339.062L218.75 334.688L207.5 323.438L208.75 320.312L218.75 310.312L223.75 305.938L284.375 245.312L290.625 237.188L295.625 227.188L298.125 217.812L298.75 214.062V201.562L296.875 192.188L293.75 184.062L290 177.188L285 170.938L273.75 159.688L275 159.062L276.25 156.562L280 152.812H281.25V151.562H282.5V150.312H283.75V149.062H285V147.812H286.25V146.562H287.5V145.312H288.75V144.062H290V142.812H291.25V141.562L296.25 137.188L355.625 77.8125L363.75 72.8125L370.625 69.6875L380.625 67.1875L388.125 66.5625Z" fill="#3498DB"/>
<path d="M1038.75 70.9375H1101.88L1102.5 71.5625V149.688L1115 144.062L1126.88 140.312L1142.5 137.188L1148.12 136.562H1172.5L1186.88 138.438L1199.38 141.562L1212.5 146.562L1223.12 152.188L1231.88 158.438L1240.62 165.938L1245 170.312L1250.62 177.188L1256.88 185.938L1263.12 196.562L1268.12 207.188L1273.12 222.188L1276.25 235.312L1278.75 254.688L1279.38 273.438L1278.75 285.938L1276.25 303.438L1271.88 318.438L1267.5 329.062L1262.5 339.062L1255 350.312L1249.38 357.188L1242.5 364.688L1236.88 370.312L1230 375.938L1221.88 382.188L1209.38 389.688L1199.38 394.688L1190 398.438L1178.12 402.188L1163.12 405.312L1145.62 407.188H1123.12L1105.62 405.938L1086.88 403.438L1068.75 399.688L1055 395.938L1040 390.938L1038.75 390.312V70.9375ZM1140 190.312L1128.75 191.562L1116.88 194.688L1106.88 199.688L1103.12 202.188L1102.5 202.812L1101.88 347.188L1106.25 349.062L1116.88 351.562L1127.5 352.812H1147.5L1158.12 350.938L1167.5 347.812L1176.88 342.812L1182.5 338.438L1188.75 332.812L1195 324.688L1200.62 314.688L1204.38 305.312L1207.5 293.438L1209.38 278.438V262.188L1207.5 246.562L1204.38 234.688L1199.38 222.812L1193.75 213.438L1186.25 205.312L1179.38 199.688L1169.38 194.688L1159.38 191.562L1148.75 190.312H1140Z" fill="#362E66"/>
<path d="M683.75 136.562H713.125L728.125 138.438L741.25 141.562L753.125 145.938L763.75 151.562L771.875 157.812L780 165.938L785.625 174.062L790.625 184.062L793.75 193.438L796.25 205.938L796.875 212.812V386.562L792.5 388.438L770.625 394.688L750.625 399.688L728.125 404.062L708.125 406.562L699.375 407.188H678.75L658.75 405.312L643.125 402.188L630 398.438L616.875 392.812L607.5 387.812L598.75 381.562L591.25 374.688L586.25 369.062L580.625 360.312L576.875 351.562L574.375 341.562L573.75 337.812V318.438L576.25 305.938L579.375 297.188L584.375 287.812L589.375 281.562L595 275.312L603.75 268.438L614.375 262.188L626.875 257.188L645.625 251.562L678.125 243.438L702.5 237.812L715 233.438L723.75 229.062L729.375 224.688L733.125 219.062L733.75 216.562V210.938L731.25 204.062L729.375 201.562V200.312L726.875 199.062L721.875 195.938L715 193.438L704.375 191.562L696.25 190.938H684.375L670 192.188L655 194.688L638.75 199.062L621.25 205.312L618.75 205.938L613.75 195.938L603.75 174.062L597.5 159.688L598.125 157.812L616.875 150.312L632.5 145.312L647.5 141.562L665 138.438L683.75 136.562ZM733.75 275.312L725 280.312L713.125 284.688L673.125 294.688L660 299.062L653.125 303.438L647.5 308.438L643.75 314.688L642.5 318.438V329.688L645 337.188L649.375 343.438L655 347.812L661.25 350.938L670 353.438L678.125 354.688H703.125L720 352.188L734.375 348.438L735 347.812L734.375 275.312H733.75Z" fill="#362E66"/>
<path d="M864.375 70.9375H926.25V142.188H998.75L999.375 142.812V195.938H926.875V334.062L928.125 342.812L931.25 349.062L936.25 352.812L944.375 355.312H956.875L971.25 352.812L988.75 347.812L994.375 345.938H996.875L1010.62 386.562L1013.75 395.938L1008.12 398.438L988.75 404.062L972.5 407.812L956.25 410.312L949.375 410.938H936.25L919.375 409.062L906.875 405.938L897.5 402.188L888.75 397.188L880.625 389.688L876.25 384.688L870.625 375.312L866.875 364.688L865 355.938L863.75 343.438V195.938L828.125 194.688L821.875 194.062L821.25 192.188V142.812L821.875 142.188H863.75V71.5625L864.375 70.9375Z" fill="#362E66"/>
<path d="M440.625 195.312H448.125L455 197.812L461.25 203.438L464.375 209.688L465 212.188V220.312L462.5 226.562L458.125 232.188L428.125 262.188L425 268.438L424.375 271.562V277.188L426.25 283.438L430 288.438L460.625 319.062L463.75 324.688L465 328.438V336.562L462.5 343.438L457.5 349.062L450 352.812L443.75 353.438L436.875 352.188L431.25 349.062L368.75 286.562L365.625 279.688L365 276.562V272.188L367.5 264.062L370.625 259.688H371.875L373.125 257.188L388.125 242.188H389.375V240.938H390.625V239.688H391.875V238.438H393.125V237.188H394.375V235.938H395.625V234.688H396.875L398.125 232.188L403.75 226.562H405V225.312L410 220.938L413.75 216.562H415V215.312H416.25V214.062H417.5V212.812H418.75V211.562H420V210.312H421.25V209.062L426.25 204.688L432.5 198.438L438.125 195.938L440.625 195.312Z" fill="#3498DB"/>
<path d="M18.75 128.438L26.875 129.062L32.5 131.562L38.75 137.188L96.25 194.688L99.375 200.938L100.625 208.438L98.75 215.938L94.375 222.812L83.125 234.062H81.875V235.312L76.875 239.688L33.75 282.812L28.75 285.312L24.375 286.562H18.125L11.875 284.688L6.875 280.938L3.125 276.562L0.625 270.312V260.938L3.125 255.312L6.875 250.312L36.875 220.312L40.625 212.812L41.25 209.688V205.312L39.375 199.062L35.625 193.438L4.375 162.188L1.25 155.938L0.625 154.062V144.688L3.125 138.438L8.75 132.188L13.75 129.688L18.75 128.438Z" fill="#362E66"/>
<path d="M958.75 542.812H978.125L986.875 544.688L992.5 548.438L994.375 552.188V559.062L992.5 562.188L990 564.688H988.75V565.938L991.875 567.188L995 570.312L996.875 574.062V583.438L993.75 589.688L988.125 593.438L980.625 595.312H958.75L958.125 594.688V544.062L958.75 542.812ZM967.5 551.562V562.188H980.625L984.375 560.312L985.625 558.438L985 554.062L981.875 552.188L979.375 551.562H967.5ZM967.5 570.938V587.188H977.5L983.125 585.938L986.875 582.812L987.5 581.562V575.938L984.375 572.188L979.375 570.938H967.5Z" fill="#362E66"/>
<path d="M636.875 542.812H644.375L649.375 547.812L656.875 557.812L665 569.062L669.375 575.938L670 542.812H678.75L679.375 543.438V594.062H671.25L666.875 587.812L660.625 577.812L653.125 567.188L646.875 559.062L646.25 559.688V594.062H636.875V542.812Z" fill="#362E66"/>
<path d="M85 542.812H104.375L114.375 545.312L121.25 549.688L125.625 555.938L127.5 561.562L128.125 565.938V572.188L126.875 579.062L123.75 585.312L121.25 588.438L115.625 592.188L108.75 594.688L105.625 595.312H84.375V543.438L85 542.812ZM93.75 551.562V587.188H103.125L110 585.312L115.625 580.312L118.125 573.438V564.688L115.625 557.812L110.625 553.438L105 551.562H93.75Z" fill="#362E66"/>
<path d="M711.25 541.562H718.75L726.875 544.062L732.5 548.438L736.875 554.688L739.375 562.188V574.688L737.5 580.938L734.375 586.562L729.375 591.562L722.5 594.688L720 595.312H710L703.75 593.438L698.125 589.688L693.75 584.688L690.625 577.188L690 574.062V563.438L691.875 556.562L695.625 550.312L698.125 547.188L705.625 542.812L711.25 541.562ZM710.625 550.312L705.625 552.812L702.5 556.562L700 562.188L699.375 570.312L700.625 577.188L703.75 582.188L707.5 585.312L712.5 587.188H716.875L722.5 585.312L726.875 580.938L729.375 574.688V562.188L726.875 556.562L723.75 552.812L718.75 550.312H710.625Z" fill="#362E66"/>
<path d="M805.625 541.562H813.125L821.25 544.062L826.25 547.812L830 552.188L833.125 559.062L833.75 561.562V575.312L831.25 582.812L826.875 589.062L820.625 593.438L814.375 595.312H804.375L798.125 593.438L792.5 589.688L788.75 585.312L786.25 580.312L784.375 572.812V564.688L785.625 558.438L789.375 550.938L794.375 545.938L800 542.812L805.625 541.562ZM805 550.312L799.375 553.438L795.625 559.062L794.375 563.438V574.062L796.25 579.688L800.625 584.688L806.875 587.188H811.25L816.875 585.312L820 582.812L822.5 579.062L824.375 572.188V565.312L823.125 559.688L820 554.688L816.25 551.562L813.125 550.312H805Z" fill="#362E66"/>
<path d="M380.625 542.812H400L408.75 544.688L414.375 547.812L418.75 551.562L422.5 559.062L423.75 564.688V572.812L422.5 579.062L419.375 585.312L415.625 589.688L408.75 593.438L401.25 595.312H380.625V542.812ZM389.375 551.562V587.188H398.75L406.875 584.688L410 582.188L413.125 576.562L413.75 574.062V564.062L411.25 557.812L408.125 554.688L403.75 552.188L400.625 551.562H389.375Z" fill="#362E66"/>
<path d="M235.625 542.812H243.125L247.5 547.188L255.625 557.812L263.75 569.062L268.125 575.938L268.75 542.812H277.5L278.125 544.062L277.5 594.062H270L265 587.188L259.375 577.812L251.875 567.188L245 558.438V593.438L244.375 594.062H235.625V542.812Z" fill="#362E66"/>
<path d="M1060.62 542.812H1079.38L1086.25 544.062L1093.12 547.812L1096.25 552.812L1096.88 554.688V563.438L1094.38 568.438L1089.38 572.188L1087.5 573.438L1093.75 582.188L1099.38 592.188L1100 594.062H1089.38L1084.38 585.312L1077.5 575.312L1069.38 574.688V594.062H1060V543.438L1060.62 542.812ZM1069.38 551.562V565.938H1080.62L1085 564.062L1086.88 562.188L1087.5 557.188L1085.62 554.062L1083.12 552.188L1080.62 551.562H1069.38Z" fill="#362E66"/>
<path d="M584.375 542.812H593.125L593.75 562.188H615.625V542.812H625V594.062H615.625V570.938H593.125V594.062H584.375L583.75 576.562V552.812L584.375 542.812Z" fill="#362E66"/>
<path d="M863.125 541.562H871.875L880 543.438L883.125 545.312L881.25 552.188L880.625 553.438L875 551.562L872.5 550.938H863.125L858.125 553.438L854.375 557.812L852.5 564.688V572.812L854.375 579.062L856.875 582.812L860.625 585.312L865 586.562L874.375 587.188V569.062L875 568.438H883.75V595.312H861.875L856.875 594.062L851.875 591.562L846.875 586.562L843.75 580.312L842.5 575.938L841.875 567.188L843.125 559.062L847.5 550.312L853.125 545.312L858.125 542.812L863.125 541.562Z" fill="#362E66"/>
<path d="M494.375 542.812H527.5V550.938L526.875 551.562H503.75V562.188H523.75L525 562.812V570.312L524.375 570.938H503.75V585.938H528.75L529.375 587.188L528.75 594.062H494.375V542.812Z" fill="#362E66"/>
<path d="M1201.25 542.812H1210L1210.62 543.438V574.062L1211.25 579.688L1214.38 584.688L1218.75 586.562H1223.12L1227.5 584.688L1230 582.188L1231.25 577.812L1231.88 542.812H1241.25V579.062L1239.38 585.312L1235.62 590.938L1230.62 594.062L1226.25 595.312H1215L1209.38 592.812L1204.38 588.438L1201.25 580.938L1200.62 575.938V543.438L1201.25 542.812Z" fill="#362E66"/>
<path d="M1006.88 542.812H1016.25L1016.88 576.562L1018.75 582.812L1021.88 585.312L1025 586.562H1029.38L1033.75 584.688L1036.25 581.562L1037.5 576.562L1038.12 542.812H1046.88L1047.5 543.438V577.812L1046.25 584.062L1043.12 589.062L1040 592.188L1035 594.688L1032.5 595.312H1021.25L1015 592.812L1010 587.812L1007.5 581.562L1006.88 577.812V542.812Z" fill="#362E66"/>
<path d="M1106.88 542.812H1139.38L1140 543.438V550.938L1139.38 551.562H1116.25V562.188H1136.25L1136.88 562.812V570.938H1116.25V585.938H1141.25V594.062H1106.88V542.812Z" fill="#362E66"/>
<path d="M337.5 542.812H370V551.562L346.875 552.188V562.188H366.875L367.5 562.812V570.938L346.875 571.562V585.938H371.875V594.062H337.5V542.812Z" fill="#362E66"/>
<path d="M48.75 542.812H57.5L62.5 552.812L70.625 572.812L77.5 591.562L78.125 594.062H68.125L65.625 587.812L63.75 582.812L41.875 582.188L41.25 586.562L38.125 594.062H28.75L30.625 587.812L38.125 567.188L46.25 547.812L48.75 542.812ZM52.5 553.438L45.625 570.312L45 573.438H61.25L59.375 567.188L53.75 553.438H52.5Z" fill="#362E66"/>
<path d="M1166.88 542.812H1175.62L1180.62 552.812L1188.12 571.562L1195 590.312L1195.62 594.062H1186.25L1183.12 586.562L1181.88 582.812L1160 582.188L1158.75 587.812L1156.25 594.062H1146.88L1148.75 587.188L1156.88 565.312L1164.38 547.812L1166.88 542.812ZM1170.62 553.438L1165.62 565.312L1163.12 571.562V573.438H1179.38L1177.5 567.188L1171.88 553.438H1170.62Z" fill="#362E66"/>
<path d="M198.75 542.812H207.5L213.125 554.688L222.5 578.438L227.5 592.188V594.062H218.125L215.625 589.062L213.75 582.188H191.875L190 589.062L188.125 594.062H178.125L185 574.688L194.375 551.562L198.75 542.812ZM202.5 553.438L198.75 561.562L194.375 573.438H211.25L207.5 562.812L203.75 554.062L202.5 553.438Z" fill="#362E66"/>
<path d="M131.875 542.812H141.875L144.375 549.062L153.125 574.062L156.25 582.188L157.5 580.312L163.75 563.438L170.625 543.438L171.25 542.812H181.25L175 560.938L166.25 582.812L161.25 594.062H151.875L147.5 585.312L140 566.562L131.875 544.062V542.812Z" fill="#362E66"/>
<path d="M308.75 541.562H316.875L325 543.438L327.5 544.688L326.875 549.062L325.625 552.812L320 551.562L317.5 550.938H308.75L302.5 554.062L299.375 559.062L298.125 562.812V574.062L300.625 580.938L305 584.688L310.625 586.562H316.875L323.75 584.688H326.25L328.125 590.312L327.5 592.812L318.75 595.312H306.875L300.625 593.438L295 589.688L290.625 584.062L288.125 577.188L287.5 573.438V564.688L289.375 557.188L292.5 550.938L297.5 545.938L303.75 542.812L308.75 541.562Z" fill="#362E66"/>
<path d="M555.625 541.562H563.75L571.25 543.438L574.375 545.312L572.5 552.188L570 552.812L564.375 550.938H555.625L550 553.438L546.25 558.438L545 562.188L544.375 569.688L545.625 577.188L549.375 583.438L554.375 585.938L556.875 586.562H563.125L570.625 584.688L572.5 584.062L574.375 589.062L575 592.188L568.125 594.688L565 595.312H553.75L545.625 592.812L539.375 587.188L535.625 579.688L534.375 574.688V562.812L536.25 556.562L539.375 550.938L542.5 547.188L548.75 543.438L555.625 541.562Z" fill="#362E66"/>
<path d="M890 542.812H900.625L908.125 556.562L912.5 564.062L913.75 564.688L915 561.562L922.5 547.812L925 542.812H935.625L930.625 552.188L923.75 564.688L918.125 573.438L917.5 594.062H908.125L907.5 574.062L897.5 557.188L890 544.062V542.812Z" fill="#362E66"/>
<path d="M446.25 542.812H486.875L487.5 543.438L486.875 551.562H471.25V594.062H461.875V551.562H446.25V542.812Z" fill="#362E66"/>
<path d="M750 542.812H758.75L759.375 585.312L781.875 585.938V594.062H750V542.812Z" fill="#362E66"/>
</svg>
