<?xml version="1.0" encoding="UTF-8"?>
<svg id="Layer_2" data-name="Layer 2" xmlns="http://www.w3.org/2000/svg" xmlns:xlink="http://www.w3.org/1999/xlink" viewBox="0 0 366.546 40.143">
  <defs>
    <style>
      .cls-1 {
        fill: url(#linear-gradient);
      }

      .cls-1, .cls-2 {
        stroke: #1c75bc;
        stroke-miterlimit: 10;
        stroke-width: 2px;
      }

      .cls-2 {
        fill: #1c75bc;
      }
    </style>
    <linearGradient id="linear-gradient" x1="228.855" y1="20.787" x2="229.355" y2="20.787" gradientUnits="userSpaceOnUse">
      <stop offset="0" stop-color="#1c75bc"/>
      <stop offset=".024" stop-color="#42839d"/>
      <stop offset=".058" stop-color="#739477"/>
      <stop offset=".094" stop-color="#9da456"/>
      <stop offset=".13" stop-color="#c0b03b"/>
      <stop offset=".166" stop-color="#daba26"/>
      <stop offset=".203" stop-color="#edc117"/>
      <stop offset=".241" stop-color="#f9c50e"/>
      <stop offset=".281" stop-color="#fdc70c"/>
      <stop offset=".669" stop-color="#f3903f"/>
      <stop offset=".888" stop-color="#ed683c"/>
      <stop offset="1" stop-color="#e93e3a"/>
    </linearGradient>
  </defs>
  <g id="Layer_1-2" data-name="Layer 1">
    <path class="cls-1" d="M43.786,24.733l8.558,12.256-2.473,1.754-7.628-10.976H11.487l-7.627,10.976-2.473-1.754,8.539-12.256h33.859ZM35.124,14.913h-16.167L27.041,2.832l8.083,12.082ZM24.831,11.88h4.436l-2.227-3.84-2.209,3.84Z"/>
    <path class="cls-2" d="M65.412,1.85v32.755h49.063v3.156h-52.219V1.85h3.156Z"/>
    <path class="cls-2" d="M175.872,15.106v23.637h-2.963v-18.974l-22.304,10.433-22.305-10.433v18.974h-2.963V15.106l25.268,11.817,25.267-11.817ZM175.013,5.514l-24.408,11.433-24.409-11.433,1.245-2.683,23.164,10.836,23.146-10.836,1.262,2.683Z"/>
    <path class="cls-2" d="M240.166,2.113v3.139h-48.518v10.977h40.154v3.122h-43.276V2.113h51.64ZM192.897,34.902h47.444v3.122h-51.641v-13.922h4.197"/>
    <path class="cls-2" d="M307.615,1.394l.019,12.52h-54.622l-.018-12.52h3.209l.018,9.311h48.204l-.018-9.311h3.207ZM307.635,23.681l.018,13.624h-3.209l-.018-10.416h-48.204l.018,10.416h-3.209l-.018-13.624h54.622Z"/>
    <path class="cls-2" d="M362.846,30.168V2.481h2.7v32.86l-45.24-31.738,1.544-2.209,40.996,28.773ZM321.85,14.861l29.458,20.234-1.543,2.21-25.232-17.273v16.186h-2.683V14.861Z"/>
  </g>
</svg>