<?xml version="1.0" encoding="UTF-8"?>
<svg id="Layer_1" data-name="Layer 1" xmlns="http://www.w3.org/2000/svg" viewBox="0 0 288.172 63.759">
  <defs>
    <style>
      .cls-1 {
        fill: #37474f;
      }

      .cls-2 {
        fill: #fbc02d;
      }
    </style>
  </defs>
  <g>
    <path class="cls-2" d="M7.522,41.907c1.29.154,2.715.139,4.11.138,2.173-.031,5.322.162,7.034-.497,1.73-.696.785-3.048.47-4.602-1.231-4.676-3.709-14.06-5.05-19.144-.488-2.124-1.463-4.822-2.364-4.058l-.025.018c-1.163,1.177-1.386,3.495-1.987,5.639-.673,2.755-1.49,6.087-2.202,8.998-.423,1.726-.84,3.434-1.25,5.109-.936,3.962-1.777,6.459-1.029,7.504.584.709,1.418.754,2.293.896Z"/>
    <path class="cls-2" d="M25.83,62.246l-.054-.054c-2.491-2.453-2.049-7.985-4.886-10.022-1.33-.745-2.965-.606-4.456-.666-2.584-.006-6.046-.004-8.651,0-1.513.06-3.153-.086-4.509.653-1.97,1.291-2.629,4.886-3.092,7.404-.852,4.766,1.345,4.139,5.318,4.197,4.337,0,8.793,0,13.162,0,3.623,0,7.028,0,9.342,0,1.375-.009,3.817.006,4.26-1.246-.234.286-.569.488-.954.608-1.451.517-4.005.685-5.481-.874Z"/>
    <path class="cls-2" d="M32.549,61.101c-2.393-9.843-12.608-48.482-15.06-58.119-.3-1.409-.907-2.363-2.212-2.632-1.597-.479-4.484-.332-5.828.268-1.332.441-1.052,1.687-.585,2.804,5.098,12.61,12.142,29.975,17.462,43.12,2.799,7.2,4.682,10.969,5.941,15.042.102.371.087.674-.003.928.277-.339.41-.8.285-1.412Z"/>
  </g>
  <path class="cls-1" d="M47.955,58.531V.001h1.611c.812,0,1.489.73,1.562,1.683l3.978,52.177h13.659c2.381,0,4.311,2.276,4.311,5.083v4.753h-20.738c-2.421,0-4.383-2.313-4.383-5.167Z"/>
  <path class="cls-1" d="M132.665,2.463l-.112,58.83c-.003,1.345-.929,2.433-2.07,2.43l-3.02-.008c-1.141-.003-2.063-1.096-2.061-2.44l.056-29.535c.005-2.795-3.336-3.394-4.036-.726l-8.104,30.939c-.265,1.014-1.051,1.707-1.946,1.72l.051-26.73c.827-.008,1.655-.581,1.95-1.715L122.136,1.725c.269-1.024,1.072-1.722,1.98-1.72l6.489.017c1.141.003,2.063,1.096,2.061,2.44Z"/>
  <path class="cls-1" d="M111.434,36.97v26.73h-.03c-.458,0-.882-.175-1.23-.48-.348-.3-.615-.73-.746-1.245l-7.982-30.88c-.696-2.675-4.042-2.085-4.042.71v29.46c0,1.345-.925,2.435-2.065,2.435h-3.02c-1.141,0-2.065-1.09-2.065-2.435V2.435c0-1.345.925-2.435,2.065-2.435h6.489c.908,0,1.709.7,1.976,1.725l8.648,33.52c.301,1.16,1.154,1.735,2.002,1.725Z"/>
  <path class="cls-1" d="M159.138,12.994v13.366h14.483v9.835h-14.483v13.361c0,2.377,1.634,4.304,3.651,4.304h17.131v9.84h-26.062c-1.031,0-1.87-.99-1.87-2.21V2.21c0-1.22.84-2.21,1.87-2.21h16.405v9.835h-8.446c-1.48,0-2.679,1.414-2.679,3.159Z"/>
  <path class="cls-1" d="M226.315,59.482v-19.359c0-2.328-1.601-4.215-3.576-4.215h-14.058c-1.975,0-3.576,1.887-3.576,4.215v19.359c0,2.328-1.601,4.215-3.576,4.215h0c-1.975,0-3.576-1.887-3.576-4.215V4.217c0-2.328,1.601-4.215,3.576-4.215h0c1.975,0,3.576,1.887,3.576,4.215v17.639c0,2.328,1.601,4.215,3.576,4.215h14.058c1.975,0,3.576-1.887,3.576-4.215V4.217c0-2.328,1.601-4.215,3.576-4.215h0c1.975,0,3.576,1.887,3.576,4.215v55.265c0,2.328-1.601,4.215-3.576,4.215h0c-1.975,0-3.576-1.887-3.576-4.215Z"/>
  <path class="cls-1" d="M280.252,61.486l-13.536-29.534c-1.765-3.85-6.721-2.372-6.721,2.004v25.526c0,2.328-1.601,4.215-3.576,4.215h0c-1.975,0-3.576-1.887-3.576-4.215V4.217c0-2.328,1.601-4.215,3.576-4.215h1.634c1.31,0,2.515.844,3.141,2.201l13.111,28.413c1.771,3.839,6.717,2.355,6.717-2.014V4.217c0-2.328,1.601-4.215,3.576-4.215h0c1.975,0,3.576,1.887,3.576,4.215v55.265c0,2.328-1.601,4.215-3.576,4.215h-1.199c-1.314,0-2.521-.849-3.146-2.212Z"/>
  <g>
    <path class="cls-2" d="M7.522,41.907c1.29.154,2.715.139,4.11.138,2.173-.031,5.322.162,7.034-.497,1.73-.696.785-3.048.47-4.602-1.231-4.676-3.709-14.06-5.05-19.144-.488-2.124-1.463-4.822-2.364-4.058l-.025.018c-1.163,1.177-1.386,3.495-1.987,5.639-.673,2.755-1.49,6.087-2.202,8.998-.423,1.726-.84,3.434-1.25,5.109-.936,3.962-1.777,6.459-1.029,7.504.584.709,1.418.754,2.293.896Z"/>
    <path class="cls-2" d="M25.83,62.246l-.054-.054c-2.491-2.453-2.049-7.985-4.886-10.022-1.33-.745-2.965-.606-4.456-.666-2.584-.006-6.046-.004-8.651,0-1.513.06-3.153-.086-4.509.653-1.97,1.291-2.629,4.886-3.092,7.404-.852,4.766,1.345,4.139,5.318,4.197,4.337,0,8.793,0,13.162,0,3.623,0,7.028,0,9.342,0,1.375-.009,3.817.006,4.26-1.246-.234.286-.569.488-.954.608-1.451.517-4.005.685-5.481-.874Z"/>
    <path class="cls-2" d="M32.549,61.101c-2.393-9.843-12.608-48.482-15.06-58.119-.3-1.409-.907-2.363-2.212-2.632-1.597-.479-4.484-.332-5.828.268-1.332.441-1.052,1.687-.585,2.804,5.098,12.61,12.142,29.975,17.462,43.12,2.799,7.2,4.682,10.969,5.941,15.042.102.371.087.674-.003.928.277-.339.41-.8.285-1.412Z"/>
  </g>
  <path class="cls-1" d="M47.955,58.531V.001h1.611c.812,0,1.489.73,1.562,1.683l3.978,52.177h13.659c2.381,0,4.311,2.276,4.311,5.083v4.753h-20.738c-2.421,0-4.383-2.313-4.383-5.167Z"/>
  <path class="cls-1" d="M132.665,2.463l-.112,58.83c-.003,1.345-.929,2.433-2.07,2.43l-3.02-.008c-1.141-.003-2.063-1.096-2.061-2.44l.056-29.535c.005-2.795-3.336-3.394-4.036-.726l-8.104,30.939c-.265,1.014-1.051,1.707-1.946,1.72l.051-26.73c.827-.008,1.655-.581,1.95-1.715L122.136,1.725c.269-1.024,1.072-1.722,1.98-1.72l6.489.017c1.141.003,2.063,1.096,2.061,2.44Z"/>
  <path class="cls-1" d="M111.434,36.97v26.73h-.03c-.458,0-.882-.175-1.23-.48-.348-.3-.615-.73-.746-1.245l-7.982-30.88c-.696-2.675-4.042-2.085-4.042.71v29.46c0,1.345-.925,2.435-2.065,2.435h-3.02c-1.141,0-2.065-1.09-2.065-2.435V2.435c0-1.345.925-2.435,2.065-2.435h6.489c.908,0,1.709.7,1.976,1.725l8.648,33.52c.301,1.16,1.154,1.735,2.002,1.725Z"/>
  <path class="cls-1" d="M159.138,12.994v13.366h14.483v9.835h-14.483v13.361c0,2.377,1.634,4.304,3.651,4.304h17.131v9.84h-26.062c-1.031,0-1.87-.99-1.87-2.21V2.21c0-1.22.84-2.21,1.87-2.21h16.405v9.835h-8.446c-1.48,0-2.679,1.414-2.679,3.159Z"/>
  <path class="cls-1" d="M226.315,59.482v-19.359c0-2.328-1.601-4.215-3.576-4.215h-14.058c-1.975,0-3.576,1.887-3.576,4.215v19.359c0,2.328-1.601,4.215-3.576,4.215h0c-1.975,0-3.576-1.887-3.576-4.215V4.217c0-2.328,1.601-4.215,3.576-4.215h0c1.975,0,3.576,1.887,3.576,4.215v17.639c0,2.328,1.601,4.215,3.576,4.215h14.058c1.975,0,3.576-1.887,3.576-4.215V4.217c0-2.328,1.601-4.215,3.576-4.215h0c1.975,0,3.576,1.887,3.576,4.215v55.265c0,2.328-1.601,4.215-3.576,4.215h0c-1.975,0-3.576-1.887-3.576-4.215Z"/>
  <path class="cls-1" d="M280.252,61.486l-13.536-29.534c-1.765-3.85-6.721-2.372-6.721,2.004v25.526c0,2.328-1.601,4.215-3.576,4.215h0c-1.975,0-3.576-1.887-3.576-4.215V4.217c0-2.328,1.601-4.215,3.576-4.215h1.634c1.31,0,2.515.844,3.141,2.201l13.111,28.413c1.771,3.839,6.717,2.355,6.717-2.014V4.217c0-2.328,1.601-4.215,3.576-4.215h0c1.975,0,3.576,1.887,3.576,4.215v55.265c0,2.328-1.601,4.215-3.576,4.215h-1.199c-1.314,0-2.521-.849-3.146-2.212Z"/>
</svg>